<?xml version="1.0" encoding="UTF-8" standalone="no"?>
<!DOCTYPE svg PUBLIC "-//W3C//DTD SVG 1.1//EN"
 "http://www.w3.org/Graphics/SVG/1.1/DTD/svg11.dtd">
<!-- Generated by graphviz version 2.44.0 (20200408.0750)
 -->
<!-- Title: dependency&#45;cruiser output Pages: 1 -->
<svg width="474pt" height="481pt"
 viewBox="0.00 0.00 473.52 481.00" xmlns="http://www.w3.org/2000/svg" xmlns:xlink="http://www.w3.org/1999/xlink">
<g id="graph0" class="graph" transform="scale(1 1) rotate(0) translate(4 477)">
<title>dependency&#45;cruiser output</title>
<polygon fill="white" stroke="transparent" points="-4,4 -4,-477 469.52,-477 469.52,4 -4,4"/>
<g id="clust1" class="cluster">
<title>cluster_client</title>
<path fill="#ffffff" stroke="black" stroke-width="2" d="M20,-8C20,-8 445.52,-8 445.52,-8 451.52,-8 457.52,-14 457.52,-20 457.52,-20 457.52,-453 457.52,-453 457.52,-459 451.52,-465 445.52,-465 445.52,-465 20,-465 20,-465 14,-465 8,-459 8,-453 8,-453 8,-20 8,-20 8,-14 14,-8 20,-8"/>
<text text-anchor="middle" x="232.76" y="-452.9" font-family="Helvetica,sans-Serif" font-weight="bold" font-size="9.00">client</text>
</g>
<g id="clust2" class="cluster">
<title>cluster_client/src</title>
<path fill="#ffffff" stroke="black" stroke-width="2" d="M28,-16C28,-16 437.52,-16 437.52,-16 443.52,-16 449.52,-22 449.52,-28 449.52,-28 449.52,-400 449.52,-400 449.52,-406 443.52,-412 437.52,-412 437.52,-412 28,-412 28,-412 22,-412 16,-406 16,-400 16,-400 16,-28 16,-28 16,-22 22,-16 28,-16"/>
<text text-anchor="middle" x="232.76" y="-399.9" font-family="Helvetica,sans-Serif" font-weight="bold" font-size="9.00">src</text>
</g>
<g id="clust3" class="cluster">
<title>cluster_client/src/components</title>
<path fill="#ffffff" stroke="black" stroke-width="2" d="M339.26,-24C339.26,-24 396.25,-24 396.25,-24 402.25,-24 408.25,-30 408.25,-36 408.25,-36 408.25,-65 408.25,-65 408.25,-71 402.25,-77 396.25,-77 396.25,-77 339.26,-77 339.26,-77 333.26,-77 327.26,-71 327.26,-65 327.26,-65 327.26,-36 327.26,-36 327.26,-30 333.26,-24 339.26,-24"/>
<text text-anchor="middle" x="367.76" y="-64.9" font-family="Helvetica,sans-Serif" font-weight="bold" font-size="9.00">components</text>
</g>
<g id="clust4" class="cluster">
<title>cluster_client/src/handlers</title>
<path fill="#ffffff" stroke="black" stroke-width="2" d="M215.5,-208C215.5,-208 429.52,-208 429.52,-208 435.52,-208 441.52,-214 441.52,-220 441.52,-220 441.52,-373 441.52,-373 441.52,-379 435.52,-385 429.52,-385 429.52,-385 215.5,-385 215.5,-385 209.5,-385 203.5,-379 203.5,-373 203.5,-373 203.5,-220 203.5,-220 203.5,-214 209.5,-208 215.5,-208"/>
<text text-anchor="middle" x="322.51" y="-372.9" font-family="Helvetica,sans-Serif" font-weight="bold" font-size="9.00">handlers</text>
</g>
<g id="clust5" class="cluster">
<title>cluster_client/src/init</title>
<path fill="#ffffff" stroke="black" stroke-width="2" d="M36,-270C36,-270 82,-270 82,-270 88,-270 94,-276 94,-282 94,-282 94,-311 94,-311 94,-317 88,-323 82,-323 82,-323 36,-323 36,-323 30,-323 24,-317 24,-311 24,-311 24,-282 24,-282 24,-276 30,-270 36,-270"/>
<text text-anchor="middle" x="59" y="-310.9" font-family="Helvetica,sans-Serif" font-weight="bold" font-size="9.00">init</text>
</g>
<g id="clust6" class="cluster">
<title>cluster_client/src/listeners</title>
<path fill="#ffffff" stroke="black" stroke-width="2" d="M114,-208C114,-208 183.5,-208 183.5,-208 189.5,-208 195.5,-214 195.5,-220 195.5,-220 195.5,-373 195.5,-373 195.5,-379 189.5,-385 183.5,-385 183.5,-385 114,-385 114,-385 108,-385 102,-379 102,-373 102,-373 102,-220 102,-220 102,-214 108,-208 114,-208"/>
<text text-anchor="middle" x="148.75" y="-372.9" font-family="Helvetica,sans-Serif" font-weight="bold" font-size="9.00">listeners</text>
</g>
<g id="clust7" class="cluster">
<title>cluster_client/src/logic</title>
<path fill="#ffffff" stroke="black" stroke-width="2" d="M337,-85C337,-85 398.51,-85 398.51,-85 404.51,-85 410.51,-91 410.51,-97 410.51,-97 410.51,-188 410.51,-188 410.51,-194 404.51,-200 398.51,-200 398.51,-200 337,-200 337,-200 331,-200 325,-194 325,-188 325,-188 325,-97 325,-97 325,-91 331,-85 337,-85"/>
<text text-anchor="middle" x="367.76" y="-187.9" font-family="Helvetica,sans-Serif" font-weight="bold" font-size="9.00">logic</text>
</g>
<!-- client/data.js -->
<g id="node1" class="node">
<title>client/data.js</title>
<g id="a_node1"><a xlink:href="../client/data.js" xlink:title="data.js">
<path fill="#ffffcc" stroke="black" d="M388.56,-438.3C388.56,-438.3 346.96,-438.3 346.96,-438.3 343.86,-438.3 340.76,-435.2 340.76,-432.1 340.76,-432.1 340.76,-425.9 340.76,-425.9 340.76,-422.8 343.86,-419.7 346.96,-419.7 346.96,-419.7 388.56,-419.7 388.56,-419.7 391.66,-419.7 394.76,-422.8 394.76,-425.9 394.76,-425.9 394.76,-432.1 394.76,-432.1 394.76,-435.2 391.66,-438.3 388.56,-438.3"/>
<text text-anchor="middle" x="367.76" y="-426.3" font-family="Helvetica,sans-Serif" font-size="9.00">data.js</text>
</a>
</g>
</g>
<!-- client/src/components/render&#45;list.js -->
<g id="node2" class="node">
<title>client/src/components/render&#45;list.js</title>
<g id="a_node2"><a xlink:href="../client/src/components/render-list.js" xlink:title="render&#45;list.js">
<path fill="#ffffcc" stroke="black" d="M394.05,-50.3C394.05,-50.3 341.46,-50.3 341.46,-50.3 338.36,-50.3 335.26,-47.2 335.26,-44.1 335.26,-44.1 335.26,-37.9 335.26,-37.9 335.26,-34.8 338.36,-31.7 341.46,-31.7 341.46,-31.7 394.05,-31.7 394.05,-31.7 397.15,-31.7 400.25,-34.8 400.25,-37.9 400.25,-37.9 400.25,-44.1 400.25,-44.1 400.25,-47.2 397.15,-50.3 394.05,-50.3"/>
<text text-anchor="middle" x="367.76" y="-38.3" font-family="Helvetica,sans-Serif" font-size="9.00">render&#45;list.js</text>
</a>
</g>
</g>
<!-- client/src/handlers/edit&#45;word.js -->
<g id="node3" class="node">
<title>client/src/handlers/edit&#45;word.js</title>
<g id="a_node3"><a xlink:href="../client/src/handlers/edit-word.js" xlink:title="edit&#45;word.js">
<path fill="#ffffcc" stroke="black" d="M275.04,-358.3C275.04,-358.3 225.45,-358.3 225.45,-358.3 222.35,-358.3 219.24,-355.2 219.24,-352.1 219.24,-352.1 219.24,-345.9 219.24,-345.9 219.24,-342.8 222.35,-339.7 225.45,-339.7 225.45,-339.7 275.04,-339.7 275.04,-339.7 278.14,-339.7 281.24,-342.8 281.24,-345.9 281.24,-345.9 281.24,-352.1 281.24,-352.1 281.24,-355.2 278.14,-358.3 275.04,-358.3"/>
<text text-anchor="middle" x="250.24" y="-346.3" font-family="Helvetica,sans-Serif" font-size="9.00">edit&#45;word.js</text>
</a>
</g>
</g>
<!-- client/src/handlers/edit&#45;word.js&#45;&gt;client/data.js -->
<g id="edge1" class="edge">
<title>client/src/handlers/edit&#45;word.js&#45;&gt;client/data.js</title>
<path fill="none" stroke="#000000" stroke-width="2" stroke-opacity="0.200000" d="M281.31,-356.85C284.08,-358.29 286.7,-359.99 288.99,-362 298.71,-370.51 293.33,-378.42 301.99,-388 312.77,-399.92 327.79,-409.72 340.65,-416.74"/>
<polygon fill="#000000" fill-opacity="0.200000" stroke="#000000" stroke-width="2" stroke-opacity="0.200000" points="339.72,-418.63 346.01,-419.58 341.69,-414.92 339.72,-418.63"/>
</g>
<!-- client/src/handlers/edit&#45;word.js&#45;&gt;client/src/components/render&#45;list.js -->
<g id="edge2" class="edge">
<title>client/src/handlers/edit&#45;word.js&#45;&gt;client/src/components/render&#45;list.js</title>
<path fill="none" stroke="#000000" stroke-width="2" stroke-opacity="0.200000" d="M281.27,-340.26C284.27,-338.3 286.95,-335.92 288.99,-333 321.02,-287.25 273.8,-130.22 301.99,-82 309.5,-69.15 322.82,-59.7 335.43,-53.13"/>
<polygon fill="#000000" fill-opacity="0.200000" stroke="#000000" stroke-width="2" stroke-opacity="0.200000" points="336.69,-54.85 341.15,-50.32 334.84,-51.08 336.69,-54.85"/>
</g>
<!-- client/src/logic/target&#45;logic.js -->
<g id="node4" class="node">
<title>client/src/logic/target&#45;logic.js</title>
<g id="a_node4"><a xlink:href="../client/src/logic/target-logic.js" xlink:title="target&#45;logic.js">
<path fill="#ffffcc" stroke="black" d="M396.06,-173.3C396.06,-173.3 339.45,-173.3 339.45,-173.3 336.35,-173.3 333.25,-170.2 333.25,-167.1 333.25,-167.1 333.25,-160.9 333.25,-160.9 333.25,-157.8 336.35,-154.7 339.45,-154.7 339.45,-154.7 396.06,-154.7 396.06,-154.7 399.16,-154.7 402.26,-157.8 402.26,-160.9 402.26,-160.9 402.26,-167.1 402.26,-167.1 402.26,-170.2 399.16,-173.3 396.06,-173.3"/>
<text text-anchor="middle" x="367.76" y="-161.3" font-family="Helvetica,sans-Serif" font-size="9.00">target&#45;logic.js</text>
</a>
</g>
</g>
<!-- client/src/handlers/edit&#45;word.js&#45;&gt;client/src/logic/target&#45;logic.js -->
<g id="edge3" class="edge">
<title>client/src/handlers/edit&#45;word.js&#45;&gt;client/src/logic/target&#45;logic.js</title>
<path fill="none" stroke="#000000" stroke-width="2" stroke-opacity="0.200000" d="M281.49,-339.92C284.37,-338.03 286.96,-335.75 288.99,-333 322.93,-286.98 271.92,-253.63 301.99,-205 309.95,-192.13 323.63,-182.6 336.36,-175.98"/>
<polygon fill="#000000" fill-opacity="0.200000" stroke="#000000" stroke-width="2" stroke-opacity="0.200000" points="337.29,-177.87 341.74,-173.33 335.43,-174.1 337.29,-177.87"/>
</g>
<!-- client/src/handlers/update&#45;components&#45;status.js -->
<g id="node5" class="node">
<title>client/src/handlers/update&#45;components&#45;status.js</title>
<g id="a_node5"><a xlink:href="../client/src/handlers/update-components-status.js" xlink:title="update&#45;components&#45;status.js">
<path fill="#ffffcc" stroke="black" d="M427.09,-358.3C427.09,-358.3 308.42,-358.3 308.42,-358.3 305.32,-358.3 302.22,-355.2 302.22,-352.1 302.22,-352.1 302.22,-345.9 302.22,-345.9 302.22,-342.8 305.32,-339.7 308.42,-339.7 308.42,-339.7 427.09,-339.7 427.09,-339.7 430.19,-339.7 433.29,-342.8 433.29,-345.9 433.29,-345.9 433.29,-352.1 433.29,-352.1 433.29,-355.2 430.19,-358.3 427.09,-358.3"/>
<text text-anchor="middle" x="367.76" y="-346.3" font-family="Helvetica,sans-Serif" font-size="9.00">update&#45;components&#45;status.js</text>
</a>
</g>
</g>
<!-- client/src/handlers/edit&#45;word.js&#45;&gt;client/src/handlers/update&#45;components&#45;status.js -->
<g id="edge4" class="edge">
<title>client/src/handlers/edit&#45;word.js&#45;&gt;client/src/handlers/update&#45;components&#45;status.js</title>
<path fill="none" stroke="#000000" stroke-width="2" stroke-opacity="0.200000" d="M281.29,-349C285.8,-349 290.61,-349 295.56,-349"/>
<polygon fill="#000000" fill-opacity="0.200000" stroke="#000000" stroke-width="2" stroke-opacity="0.200000" points="295.89,-351.1 301.89,-349 295.89,-346.9 295.89,-351.1"/>
</g>
<!-- client/src/handlers/input&#45;word.js -->
<g id="node6" class="node">
<title>client/src/handlers/input&#45;word.js</title>
<g id="a_node6"><a xlink:href="../client/src/handlers/input-word.js" xlink:title="input&#45;word.js">
<path fill="#ffffcc" stroke="black" d="M277.54,-234.3C277.54,-234.3 222.94,-234.3 222.94,-234.3 219.84,-234.3 216.74,-231.2 216.74,-228.1 216.74,-228.1 216.74,-221.9 216.74,-221.9 216.74,-218.8 219.84,-215.7 222.94,-215.7 222.94,-215.7 277.54,-215.7 277.54,-215.7 280.64,-215.7 283.74,-218.8 283.74,-221.9 283.74,-221.9 283.74,-228.1 283.74,-228.1 283.74,-231.2 280.64,-234.3 277.54,-234.3"/>
<text text-anchor="middle" x="250.24" y="-222.3" font-family="Helvetica,sans-Serif" font-size="9.00">input&#45;word.js</text>
</a>
</g>
</g>
<!-- client/src/handlers/input&#45;word.js&#45;&gt;client/data.js -->
<g id="edge5" class="edge">
<title>client/src/handlers/input&#45;word.js&#45;&gt;client/data.js</title>
<path fill="none" stroke="#000000" stroke-width="2" stroke-opacity="0.200000" d="M282.24,-234.53C284.82,-236.33 287.15,-238.47 288.99,-241 308.29,-267.52 284.92,-360 301.99,-388 309.74,-400.71 323.08,-410.14 335.65,-416.73"/>
<polygon fill="#000000" fill-opacity="0.200000" stroke="#000000" stroke-width="2" stroke-opacity="0.200000" points="335.04,-418.78 341.35,-419.56 336.91,-415.01 335.04,-418.78"/>
</g>
<!-- client/src/handlers/input&#45;word.js&#45;&gt;client/src/components/render&#45;list.js -->
<g id="edge6" class="edge">
<title>client/src/handlers/input&#45;word.js&#45;&gt;client/src/components/render&#45;list.js</title>
<path fill="none" stroke="#000000" stroke-width="2" stroke-opacity="0.200000" d="M254.96,-215.6C261.95,-197.82 277.38,-158.01 288.99,-124 295.3,-105.51 290.11,-97.52 301.99,-82 311.47,-69.61 325.86,-59.97 338.66,-53.16"/>
<polygon fill="#000000" fill-opacity="0.200000" stroke="#000000" stroke-width="2" stroke-opacity="0.200000" points="339.65,-55.01 344.03,-50.41 337.73,-51.27 339.65,-55.01"/>
</g>
<!-- client/src/logic/is&#45;word.js -->
<g id="node7" class="node">
<title>client/src/logic/is&#45;word.js</title>
<g id="a_node7"><a xlink:href="../client/src/logic/is-word.js" xlink:title="is&#45;word.js">
<path fill="#ffffcc" stroke="black" d="M388.56,-111.3C388.56,-111.3 346.96,-111.3 346.96,-111.3 343.86,-111.3 340.76,-108.2 340.76,-105.1 340.76,-105.1 340.76,-98.9 340.76,-98.9 340.76,-95.8 343.86,-92.7 346.96,-92.7 346.96,-92.7 388.56,-92.7 388.56,-92.7 391.66,-92.7 394.76,-95.8 394.76,-98.9 394.76,-98.9 394.76,-105.1 394.76,-105.1 394.76,-108.2 391.66,-111.3 388.56,-111.3"/>
<text text-anchor="middle" x="367.76" y="-99.3" font-family="Helvetica,sans-Serif" font-size="9.00">is&#45;word.js</text>
</a>
</g>
</g>
<!-- client/src/handlers/input&#45;word.js&#45;&gt;client/src/logic/is&#45;word.js -->
<g id="edge7" class="edge">
<title>client/src/handlers/input&#45;word.js&#45;&gt;client/src/logic/is&#45;word.js</title>
<path fill="none" stroke="#000000" stroke-width="2" stroke-opacity="0.200000" d="M252.89,-215.61C257.09,-194.69 270.15,-144.02 301.99,-118 311.07,-110.58 323.1,-106.53 334.32,-104.34"/>
<polygon fill="#000000" fill-opacity="0.200000" stroke="#000000" stroke-width="2" stroke-opacity="0.200000" points="334.89,-106.37 340.45,-103.3 334.19,-102.23 334.89,-106.37"/>
</g>
<!-- client/src/handlers/move&#45;word.js -->
<g id="node8" class="node">
<title>client/src/handlers/move&#45;word.js</title>
<g id="a_node8"><a xlink:href="../client/src/handlers/move-word.js" xlink:title="move&#45;word.js">
<path fill="#ffffcc" stroke="black" d="M279.04,-265.3C279.04,-265.3 221.45,-265.3 221.45,-265.3 218.35,-265.3 215.25,-262.2 215.25,-259.1 215.25,-259.1 215.25,-252.9 215.25,-252.9 215.25,-249.8 218.35,-246.7 221.45,-246.7 221.45,-246.7 279.04,-246.7 279.04,-246.7 282.14,-246.7 285.24,-249.8 285.24,-252.9 285.24,-252.9 285.24,-259.1 285.24,-259.1 285.24,-262.2 282.14,-265.3 279.04,-265.3"/>
<text text-anchor="middle" x="250.24" y="-253.3" font-family="Helvetica,sans-Serif" font-size="9.00">move&#45;word.js</text>
</a>
</g>
</g>
<!-- client/src/handlers/move&#45;word.js&#45;&gt;client/data.js -->
<g id="edge8" class="edge">
<title>client/src/handlers/move&#45;word.js&#45;&gt;client/data.js</title>
<path fill="none" stroke="#000000" stroke-width="2" stroke-opacity="0.200000" d="M281.82,-265.34C284.56,-267.18 287.03,-269.38 288.99,-272 320,-313.59 274.48,-344.02 301.99,-388 309.95,-400.72 323.46,-410.19 336.08,-416.8"/>
<polygon fill="#000000" fill-opacity="0.200000" stroke="#000000" stroke-width="2" stroke-opacity="0.200000" points="335.49,-418.85 341.8,-419.64 337.36,-415.09 335.49,-418.85"/>
</g>
<!-- client/src/handlers/move&#45;word.js&#45;&gt;client/src/components/render&#45;list.js -->
<g id="edge9" class="edge">
<title>client/src/handlers/move&#45;word.js&#45;&gt;client/src/components/render&#45;list.js</title>
<path fill="none" stroke="#000000" stroke-width="2" stroke-opacity="0.200000" d="M282.25,-246.48C284.84,-244.68 287.16,-242.54 288.99,-240 309.63,-211.45 283.75,-112.14 301.99,-82 309.7,-69.26 323.04,-59.83 335.61,-53.24"/>
<polygon fill="#000000" fill-opacity="0.200000" stroke="#000000" stroke-width="2" stroke-opacity="0.200000" points="336.87,-54.96 341.32,-50.42 335.01,-51.2 336.87,-54.96"/>
</g>
<!-- client/src/handlers/remove&#45;word.js -->
<g id="node9" class="node">
<title>client/src/handlers/remove&#45;word.js</title>
<g id="a_node9"><a xlink:href="../client/src/handlers/remove-word.js" xlink:title="remove&#45;word.js">
<path fill="#ffffcc" stroke="black" d="M283.04,-296.3C283.04,-296.3 217.45,-296.3 217.45,-296.3 214.35,-296.3 211.25,-293.2 211.25,-290.1 211.25,-290.1 211.25,-283.9 211.25,-283.9 211.25,-280.8 214.35,-277.7 217.45,-277.7 217.45,-277.7 283.04,-277.7 283.04,-277.7 286.14,-277.7 289.24,-280.8 289.24,-283.9 289.24,-283.9 289.24,-290.1 289.24,-290.1 289.24,-293.2 286.14,-296.3 283.04,-296.3"/>
<text text-anchor="middle" x="250.24" y="-284.3" font-family="Helvetica,sans-Serif" font-size="9.00">remove&#45;word.js</text>
</a>
</g>
</g>
<!-- client/src/handlers/remove&#45;word.js&#45;&gt;client/data.js -->
<g id="edge10" class="edge">
<title>client/src/handlers/remove&#45;word.js&#45;&gt;client/data.js</title>
<path fill="none" stroke="#000000" stroke-width="2" stroke-opacity="0.200000" d="M281.72,-296.42C284.47,-298.24 286.98,-300.42 288.99,-303 312.45,-333.17 281.08,-356.01 301.99,-388 310.34,-400.77 324.2,-410.32 336.95,-416.98"/>
<polygon fill="#000000" fill-opacity="0.200000" stroke="#000000" stroke-width="2" stroke-opacity="0.200000" points="336.03,-418.86 342.34,-419.66 337.9,-415.1 336.03,-418.86"/>
</g>
<!-- client/src/handlers/remove&#45;word.js&#45;&gt;client/src/components/render&#45;list.js -->
<g id="edge11" class="edge">
<title>client/src/handlers/remove&#45;word.js&#45;&gt;client/src/components/render&#45;list.js</title>
<path fill="none" stroke="#000000" stroke-width="2" stroke-opacity="0.200000" d="M282.29,-277.5C284.86,-275.7 287.17,-273.55 288.99,-271 313.43,-236.72 280.43,-118.16 301.99,-82 309.61,-69.21 322.94,-59.77 335.53,-53.19"/>
<polygon fill="#000000" fill-opacity="0.200000" stroke="#000000" stroke-width="2" stroke-opacity="0.200000" points="336.79,-54.91 341.24,-50.37 334.93,-51.15 336.79,-54.91"/>
</g>
<!-- client/src/handlers/sort&#45;words.js -->
<g id="node10" class="node">
<title>client/src/handlers/sort&#45;words.js</title>
<g id="a_node10"><a xlink:href="../client/src/handlers/sort-words.js" xlink:title="sort&#45;words.js">
<path fill="#ffffcc" stroke="black" d="M277.54,-327.3C277.54,-327.3 222.95,-327.3 222.95,-327.3 219.85,-327.3 216.75,-324.2 216.75,-321.1 216.75,-321.1 216.75,-314.9 216.75,-314.9 216.75,-311.8 219.85,-308.7 222.95,-308.7 222.95,-308.7 277.54,-308.7 277.54,-308.7 280.64,-308.7 283.74,-311.8 283.74,-314.9 283.74,-314.9 283.74,-321.1 283.74,-321.1 283.74,-324.2 280.64,-327.3 277.54,-327.3"/>
<text text-anchor="middle" x="250.24" y="-315.3" font-family="Helvetica,sans-Serif" font-size="9.00">sort&#45;words.js</text>
</a>
</g>
</g>
<!-- client/src/handlers/sort&#45;words.js&#45;&gt;client/data.js -->
<g id="edge12" class="edge">
<title>client/src/handlers/sort&#45;words.js&#45;&gt;client/data.js</title>
<path fill="none" stroke="#000000" stroke-width="2" stroke-opacity="0.200000" d="M281.13,-327.36C284.07,-329.2 286.78,-331.39 288.99,-334 304.95,-352.83 287.62,-367.93 301.99,-388 311.01,-400.59 325.21,-410.21 338.02,-416.95"/>
<polygon fill="#000000" fill-opacity="0.200000" stroke="#000000" stroke-width="2" stroke-opacity="0.200000" points="337.1,-418.84 343.41,-419.67 338.99,-415.09 337.1,-418.84"/>
</g>
<!-- client/src/handlers/sort&#45;words.js&#45;&gt;client/src/components/render&#45;list.js -->
<g id="edge13" class="edge">
<title>client/src/handlers/sort&#45;words.js&#45;&gt;client/src/components/render&#45;list.js</title>
<path fill="none" stroke="#000000" stroke-width="2" stroke-opacity="0.200000" d="M282.31,-308.52C284.88,-306.71 287.18,-304.56 288.99,-302 317.22,-261.98 277.12,-124.19 301.99,-82 309.55,-69.18 322.87,-59.73 335.47,-53.16"/>
<polygon fill="#000000" fill-opacity="0.200000" stroke="#000000" stroke-width="2" stroke-opacity="0.200000" points="336.74,-54.88 341.19,-50.34 334.88,-51.11 336.74,-54.88"/>
</g>
<!-- client/src/logic/sort&#45;strings.js -->
<g id="node11" class="node">
<title>client/src/logic/sort&#45;strings.js</title>
<g id="a_node11"><a xlink:href="../client/src/logic/sort-strings.js" xlink:title="sort&#45;strings.js">
<path fill="#ffffcc" stroke="black" d="M396.55,-142.3C396.55,-142.3 338.96,-142.3 338.96,-142.3 335.86,-142.3 332.76,-139.2 332.76,-136.1 332.76,-136.1 332.76,-129.9 332.76,-129.9 332.76,-126.8 335.86,-123.7 338.96,-123.7 338.96,-123.7 396.55,-123.7 396.55,-123.7 399.65,-123.7 402.75,-126.8 402.75,-129.9 402.75,-129.9 402.75,-136.1 402.75,-136.1 402.75,-139.2 399.65,-142.3 396.55,-142.3"/>
<text text-anchor="middle" x="367.76" y="-130.3" font-family="Helvetica,sans-Serif" font-size="9.00">sort&#45;strings.js</text>
</a>
</g>
</g>
<!-- client/src/handlers/sort&#45;words.js&#45;&gt;client/src/logic/sort&#45;strings.js -->
<g id="edge14" class="edge">
<title>client/src/handlers/sort&#45;words.js&#45;&gt;client/src/logic/sort&#45;strings.js</title>
<path fill="none" stroke="#000000" stroke-width="2" stroke-opacity="0.200000" d="M282.25,-308.47C284.83,-306.67 287.15,-304.54 288.99,-302 309.02,-274.37 279.83,-174.95 301.99,-149 308.34,-141.56 317.55,-137.29 327.05,-134.9"/>
<polygon fill="#000000" fill-opacity="0.200000" stroke="#000000" stroke-width="2" stroke-opacity="0.200000" points="327.53,-136.95 332.97,-133.65 326.67,-132.84 327.53,-136.95"/>
</g>
<!-- client/src/init/index.js -->
<g id="node12" class="node">
<title>client/src/init/index.js</title>
<g id="a_node12"><a xlink:href="../client/src/init/index.js" xlink:title="index.js">
<path fill="#ffffcc" stroke="black" d="M79.8,-296.3C79.8,-296.3 38.2,-296.3 38.2,-296.3 35.1,-296.3 32,-293.2 32,-290.1 32,-290.1 32,-283.9 32,-283.9 32,-280.8 35.1,-277.7 38.2,-277.7 38.2,-277.7 79.8,-277.7 79.8,-277.7 82.9,-277.7 86,-280.8 86,-283.9 86,-283.9 86,-290.1 86,-290.1 86,-293.2 82.9,-296.3 79.8,-296.3"/>
<text text-anchor="middle" x="59" y="-284.3" font-family="Helvetica,sans-Serif" font-size="9.00">index.js</text>
</a>
</g>
</g>
<!-- client/src/init/index.js&#45;&gt;client/data.js -->
<g id="edge15" class="edge">
<title>client/src/init/index.js&#45;&gt;client/data.js</title>
<path fill="none" stroke="#000000" stroke-width="2" stroke-opacity="0.200000" d="M60.9,-296.32C63.38,-316.58 72.27,-364.68 102,-388 170.54,-441.76 280.49,-438.81 334.58,-433.35"/>
<polygon fill="#000000" fill-opacity="0.200000" stroke="#000000" stroke-width="2" stroke-opacity="0.200000" points="334.84,-435.43 340.58,-432.71 334.39,-431.25 334.84,-435.43"/>
</g>
<!-- client/src/init/index.js&#45;&gt;client/src/components/render&#45;list.js -->
<g id="edge16" class="edge">
<title>client/src/init/index.js&#45;&gt;client/src/components/render&#45;list.js</title>
<path fill="none" stroke="#000000" stroke-width="2" stroke-opacity="0.200000" d="M62.91,-277.66C68.38,-261.33 81.51,-227.23 102,-205 172.01,-129.06 284.97,-75.13 337.79,-52.65"/>
<polygon fill="#000000" fill-opacity="0.200000" stroke="#000000" stroke-width="2" stroke-opacity="0.200000" points="338.61,-54.59 343.32,-50.32 336.97,-50.72 338.61,-54.59"/>
</g>
<!-- client/src/listeners/edit&#45;word.js -->
<g id="node13" class="node">
<title>client/src/listeners/edit&#45;word.js</title>
<g id="a_node13"><a xlink:href="../client/src/listeners/edit-word.js" xlink:title="edit&#45;word.js">
<path fill="#ffffcc" stroke="black" d="M173.54,-358.3C173.54,-358.3 123.95,-358.3 123.95,-358.3 120.85,-358.3 117.75,-355.2 117.75,-352.1 117.75,-352.1 117.75,-345.9 117.75,-345.9 117.75,-342.8 120.85,-339.7 123.95,-339.7 123.95,-339.7 173.54,-339.7 173.54,-339.7 176.65,-339.7 179.75,-342.8 179.75,-345.9 179.75,-345.9 179.75,-352.1 179.75,-352.1 179.75,-355.2 176.65,-358.3 173.54,-358.3"/>
<text text-anchor="middle" x="148.75" y="-346.3" font-family="Helvetica,sans-Serif" font-size="9.00">edit&#45;word.js</text>
</a>
</g>
</g>
<!-- client/src/init/index.js&#45;&gt;client/src/listeners/edit&#45;word.js -->
<g id="edge17" class="edge">
<title>client/src/init/index.js&#45;&gt;client/src/listeners/edit&#45;word.js</title>
<path fill="none" stroke="#000000" stroke-width="2" stroke-opacity="0.200000" d="M66.37,-296.39C73.81,-306.7 87.02,-323.11 102,-333 105.13,-335.07 108.56,-336.9 112.09,-338.52"/>
<polygon fill="#000000" fill-opacity="0.200000" stroke="#000000" stroke-width="2" stroke-opacity="0.200000" points="111.35,-340.49 117.69,-340.89 112.98,-336.62 111.35,-340.49"/>
</g>
<!-- client/src/listeners/input&#45;word.js -->
<g id="node14" class="node">
<title>client/src/listeners/input&#45;word.js</title>
<g id="a_node14"><a xlink:href="../client/src/listeners/input-word.js" xlink:title="input&#45;word.js">
<path fill="#ffffcc" stroke="black" d="M176.05,-234.3C176.05,-234.3 121.45,-234.3 121.45,-234.3 118.35,-234.3 115.25,-231.2 115.25,-228.1 115.25,-228.1 115.25,-221.9 115.25,-221.9 115.25,-218.8 118.35,-215.7 121.45,-215.7 121.45,-215.7 176.05,-215.7 176.05,-215.7 179.15,-215.7 182.25,-218.8 182.25,-221.9 182.25,-221.9 182.25,-228.1 182.25,-228.1 182.25,-231.2 179.15,-234.3 176.05,-234.3"/>
<text text-anchor="middle" x="148.75" y="-222.3" font-family="Helvetica,sans-Serif" font-size="9.00">input&#45;word.js</text>
</a>
</g>
</g>
<!-- client/src/init/index.js&#45;&gt;client/src/listeners/input&#45;word.js -->
<g id="edge18" class="edge">
<title>client/src/init/index.js&#45;&gt;client/src/listeners/input&#45;word.js</title>
<path fill="none" stroke="#000000" stroke-width="2" stroke-opacity="0.200000" d="M66.37,-277.61C73.81,-267.3 87.02,-250.89 102,-241 104.21,-239.54 106.57,-238.2 109.01,-236.96"/>
<polygon fill="#000000" fill-opacity="0.200000" stroke="#000000" stroke-width="2" stroke-opacity="0.200000" points="110.24,-238.71 114.81,-234.28 108.48,-234.89 110.24,-238.71"/>
</g>
<!-- client/src/listeners/move&#45;word.js -->
<g id="node15" class="node">
<title>client/src/listeners/move&#45;word.js</title>
<g id="a_node15"><a xlink:href="../client/src/listeners/move-word.js" xlink:title="move&#45;word.js">
<path fill="#ffffcc" stroke="black" d="M177.54,-265.3C177.54,-265.3 119.95,-265.3 119.95,-265.3 116.85,-265.3 113.75,-262.2 113.75,-259.1 113.75,-259.1 113.75,-252.9 113.75,-252.9 113.75,-249.8 116.85,-246.7 119.95,-246.7 119.95,-246.7 177.54,-246.7 177.54,-246.7 180.65,-246.7 183.75,-249.8 183.75,-252.9 183.75,-252.9 183.75,-259.1 183.75,-259.1 183.75,-262.2 180.65,-265.3 177.54,-265.3"/>
<text text-anchor="middle" x="148.75" y="-253.3" font-family="Helvetica,sans-Serif" font-size="9.00">move&#45;word.js</text>
</a>
</g>
</g>
<!-- client/src/init/index.js&#45;&gt;client/src/listeners/move&#45;word.js -->
<g id="edge19" class="edge">
<title>client/src/init/index.js&#45;&gt;client/src/listeners/move&#45;word.js</title>
<path fill="none" stroke="#000000" stroke-width="2" stroke-opacity="0.200000" d="M86.2,-277.61C91.43,-275.75 96.89,-273.81 102,-272 106.15,-270.53 110.5,-269 114.82,-267.49"/>
<polygon fill="#000000" fill-opacity="0.200000" stroke="#000000" stroke-width="2" stroke-opacity="0.200000" points="115.68,-269.41 120.64,-265.45 114.29,-265.45 115.68,-269.41"/>
</g>
<!-- client/src/listeners/remove&#45;word.js -->
<g id="node16" class="node">
<title>client/src/listeners/remove&#45;word.js</title>
<g id="a_node16"><a xlink:href="../client/src/listeners/remove-word.js" xlink:title="remove&#45;word.js">
<path fill="#ffffcc" stroke="black" d="M181.54,-296.3C181.54,-296.3 115.95,-296.3 115.95,-296.3 112.85,-296.3 109.75,-293.2 109.75,-290.1 109.75,-290.1 109.75,-283.9 109.75,-283.9 109.75,-280.8 112.85,-277.7 115.95,-277.7 115.95,-277.7 181.54,-277.7 181.54,-277.7 184.64,-277.7 187.74,-280.8 187.74,-283.9 187.74,-283.9 187.74,-290.1 187.74,-290.1 187.74,-293.2 184.64,-296.3 181.54,-296.3"/>
<text text-anchor="middle" x="148.75" y="-284.3" font-family="Helvetica,sans-Serif" font-size="9.00">remove&#45;word.js</text>
</a>
</g>
</g>
<!-- client/src/init/index.js&#45;&gt;client/src/listeners/remove&#45;word.js -->
<g id="edge20" class="edge">
<title>client/src/init/index.js&#45;&gt;client/src/listeners/remove&#45;word.js</title>
<path fill="none" stroke="#000000" stroke-width="2" stroke-opacity="0.200000" d="M86.33,-287C91.74,-287 97.58,-287 103.43,-287"/>
<polygon fill="#000000" fill-opacity="0.200000" stroke="#000000" stroke-width="2" stroke-opacity="0.200000" points="103.76,-289.1 109.76,-287 103.76,-284.9 103.76,-289.1"/>
</g>
<!-- client/src/listeners/sort&#45;words.js -->
<g id="node17" class="node">
<title>client/src/listeners/sort&#45;words.js</title>
<g id="a_node17"><a xlink:href="../client/src/listeners/sort-words.js" xlink:title="sort&#45;words.js">
<path fill="#ffffcc" stroke="black" d="M176.04,-327.3C176.04,-327.3 121.45,-327.3 121.45,-327.3 118.35,-327.3 115.25,-324.2 115.25,-321.1 115.25,-321.1 115.25,-314.9 115.25,-314.9 115.25,-311.8 118.35,-308.7 121.45,-308.7 121.45,-308.7 176.04,-308.7 176.04,-308.7 179.14,-308.7 182.24,-311.8 182.24,-314.9 182.24,-314.9 182.24,-321.1 182.24,-321.1 182.24,-324.2 179.14,-327.3 176.04,-327.3"/>
<text text-anchor="middle" x="148.75" y="-315.3" font-family="Helvetica,sans-Serif" font-size="9.00">sort&#45;words.js</text>
</a>
</g>
</g>
<!-- client/src/init/index.js&#45;&gt;client/src/listeners/sort&#45;words.js -->
<g id="edge21" class="edge">
<title>client/src/init/index.js&#45;&gt;client/src/listeners/sort&#45;words.js</title>
<path fill="none" stroke="#000000" stroke-width="2" stroke-opacity="0.200000" d="M86.2,-296.39C91.43,-298.25 96.89,-300.19 102,-302 106.15,-303.47 110.5,-305 114.82,-306.51"/>
<polygon fill="#000000" fill-opacity="0.200000" stroke="#000000" stroke-width="2" stroke-opacity="0.200000" points="114.29,-308.55 120.64,-308.55 115.68,-304.59 114.29,-308.55"/>
</g>
<!-- client/src/listeners/edit&#45;word.js&#45;&gt;client/src/handlers/edit&#45;word.js -->
<g id="edge22" class="edge">
<title>client/src/listeners/edit&#45;word.js&#45;&gt;client/src/handlers/edit&#45;word.js</title>
<path fill="none" stroke="#000000" stroke-width="2" stroke-opacity="0.200000" d="M179.87,-349C190.29,-349 202.08,-349 212.95,-349"/>
<polygon fill="#000000" fill-opacity="0.200000" stroke="#000000" stroke-width="2" stroke-opacity="0.200000" points="213.22,-351.1 219.22,-349 213.22,-346.9 213.22,-351.1"/>
</g>
<!-- client/src/listeners/input&#45;word.js&#45;&gt;client/src/handlers/input&#45;word.js -->
<g id="edge23" class="edge">
<title>client/src/listeners/input&#45;word.js&#45;&gt;client/src/handlers/input&#45;word.js</title>
<path fill="none" stroke="#000000" stroke-width="2" stroke-opacity="0.200000" d="M182.33,-225C191.35,-225 201.22,-225 210.55,-225"/>
<polygon fill="#000000" fill-opacity="0.200000" stroke="#000000" stroke-width="2" stroke-opacity="0.200000" points="210.59,-227.1 216.59,-225 210.59,-222.9 210.59,-227.1"/>
</g>
<!-- client/src/listeners/move&#45;word.js&#45;&gt;client/src/handlers/move&#45;word.js -->
<g id="edge24" class="edge">
<title>client/src/listeners/move&#45;word.js&#45;&gt;client/src/handlers/move&#45;word.js</title>
<path fill="none" stroke="#000000" stroke-width="2" stroke-opacity="0.200000" d="M183.71,-256C191.87,-256 200.67,-256 209.09,-256"/>
<polygon fill="#000000" fill-opacity="0.200000" stroke="#000000" stroke-width="2" stroke-opacity="0.200000" points="209.43,-258.1 215.43,-256 209.43,-253.9 209.43,-258.1"/>
</g>
<!-- client/src/listeners/remove&#45;word.js&#45;&gt;client/src/handlers/remove&#45;word.js -->
<g id="edge25" class="edge">
<title>client/src/listeners/remove&#45;word.js&#45;&gt;client/src/handlers/remove&#45;word.js</title>
<path fill="none" stroke="#000000" stroke-width="2" stroke-opacity="0.200000" d="M187.65,-287C193.37,-287 199.32,-287 205.17,-287"/>
<polygon fill="#000000" fill-opacity="0.200000" stroke="#000000" stroke-width="2" stroke-opacity="0.200000" points="205.45,-289.1 211.45,-287 205.45,-284.9 205.45,-289.1"/>
</g>
<!-- client/src/listeners/sort&#45;words.js&#45;&gt;client/src/handlers/sort&#45;words.js -->
<g id="edge26" class="edge">
<title>client/src/listeners/sort&#45;words.js&#45;&gt;client/src/handlers/sort&#45;words.js</title>
<path fill="none" stroke="#000000" stroke-width="2" stroke-opacity="0.200000" d="M182.33,-318C191.35,-318 201.22,-318 210.55,-318"/>
<polygon fill="#000000" fill-opacity="0.200000" stroke="#000000" stroke-width="2" stroke-opacity="0.200000" points="210.59,-320.1 216.59,-318 210.59,-315.9 210.59,-320.1"/>
</g>
</g>
</svg>
